<?xml version="1.0" encoding="utf-8"?>
<!-- Generator: Adobe Illustrator 16.0.0, SVG Export Plug-In . SVG Version: 6.00 Build 0)  -->
<!DOCTYPE svg PUBLIC "-//W3C//DTD SVG 1.1//EN" "http://www.w3.org/Graphics/SVG/1.1/DTD/svg11.dtd">
<svg version="1.1" id="Layer_16" xmlns="http://www.w3.org/2000/svg" xmlns:xlink="http://www.w3.org/1999/xlink" x="0px" y="0px"
	 width="734px" height="355px" viewBox="0 0 734 355" enable-background="new 0 0 734 355" xml:space="preserve">
<g>
	<path opacity="0.4" fill="#1C1E21" d="M335,113.004c0-5.5-4.502-9.504-10.002-9.504h-112c-5.5,0-9.998,4.004-9.998,9.504v53
		c0,5.5,4.498,10.496,9.998,10.496h112c5.5,0,10.002-4.996,10.002-10.496V136.5h9.748c4.549,0,8.252,3.317,8.252,8.004v67
		c0,4.687-3.814,8.996-8.502,8.996h-34c-4.688,0-8.498-4.31-8.498-8.996v-8c0-4.687,3.811-8.004,8.498-8.004h7
		c4.607,0,8.502,2.366,8.502,5.754v7.75c0,0.828,0.672,1.5,1.5,1.5s1.5-0.672,1.5-1.5v-7.75c0-5.101-5.16-8.754-11.502-8.754h-7
		c-6.342,0-11.498,4.663-11.498,11.004v8c0,6.341,5.156,11.996,11.498,11.996h34c6.342,0,11.502-5.655,11.502-11.996v-67
		c0-6.341-5.049-11.004-11.252-11.004H335V113.004z M714,145.5h-61v110h16v55h61v-110h-16V145.5z M382,209.282v0.011l-2.032,0.335
		l1.854,6.439l0.178-0.344v0.002l0.772-3.458l0.823-3.32l3.544-13.034l-0.14-0.06V26.023c0-1.907-1.467-2.523-3.374-2.523h-4.161
		c-1.906,0-3.465,0.616-3.465,2.523v169.89l5.499-3.493l0.022,0.015l-5.523,3.479l3.964,13.695L382,209.282z M403.093,168.975
		c0.049,0.276,0.112,0.547,0.196,0.809c0.009,0.025,0.02,0.05,0.027,0.075c0.085,0.251,0.188,0.494,0.304,0.729
		c0.018,0.036,0.033,0.072,0.052,0.107c0.131,0.254,0.277,0.496,0.441,0.727c0.012,0.017,0.024,0.032,0.036,0.049
		c0.349,0.482,0.765,0.91,1.236,1.272c0.004,0.003,0.011,0.005,0.015,0.008c0.482,0.369,0.6,0.667,1.6,0.879v17.375l14-2.43v-15.57
		c2-1.088,3-2.958,3-5.073V167.5h7v-39h-7v-62h-0.161l-4.72-29H418v-9h-3v-5.074l-1-2.391l-1,2.391V28.5h-3v9h-0.933L403,66.004
		v101.928c0,0.292,0.027,0.577,0.068,0.859C403.076,168.853,403.082,168.914,403.093,168.975z M424,136.5h3v27h-3V136.5z
		 M549,16.029c0-5.263-4.267-9.529-9.529-9.529h-83.941c-5.263,0-9.529,4.267-9.529,9.529v189.941c0,5.263,4.267,9.529,9.529,9.529
		h83.941c5.263,0,9.529-4.267,9.529-9.529V16.029z M255.171,52.358c0.034,0.497,0.067,0.995,0.118,1.487
		c0.027,0.26,0.066,0.516,0.099,0.773c0.056,0.457,0.11,0.914,0.182,1.365c0.041,0.261,0.093,0.518,0.139,0.777
		c0.079,0.445,0.157,0.891,0.249,1.331c0.053,0.251,0.115,0.498,0.173,0.747c0.103,0.444,0.205,0.888,0.321,1.326
		c0.062,0.237,0.133,0.472,0.201,0.707c0.126,0.446,0.255,0.891,0.396,1.33c0.071,0.221,0.148,0.438,0.223,0.658
		c0.153,0.449,0.31,0.897,0.477,1.34c0.076,0.201,0.157,0.4,0.237,0.601c0.18,0.456,0.365,0.909,0.562,1.356
		c0.079,0.18,0.161,0.358,0.243,0.537c0.211,0.463,0.428,0.921,0.654,1.374c0.079,0.159,0.16,0.316,0.242,0.474
		c0.242,0.469,0.491,0.932,0.75,1.389c0.077,0.138,0.156,0.273,0.235,0.41c0.274,0.474,0.559,0.941,0.852,1.402
		c0.072,0.114,0.146,0.229,0.22,0.342c0.31,0.479,0.629,0.949,0.958,1.414c0.066,0.093,0.132,0.186,0.198,0.278
		c0.347,0.481,0.704,0.954,1.07,1.42c0.057,0.071,0.111,0.143,0.168,0.213c0.386,0.483,0.783,0.958,1.189,1.424
		c0.043,0.05,0.086,0.101,0.129,0.149c0.428,0.484,0.865,0.957,1.314,1.421c0.027,0.029,0.055,0.06,0.084,0.089
		c0.469,0.482,0.949,0.953,1.441,1.412c0.008,0.008,0.016,0.016,0.023,0.022v-0.001c7.431,6.924,17.393,11.167,28.352,11.167
		c22.979,0,41.606-18.629,41.606-41.608c0-15.762-8.765-29.474-21.685-36.535h0.001l-0.012-0.006
		c-0.695-0.38-1.404-0.736-2.122-1.077c-0.159-0.075-0.32-0.144-0.48-0.217c-0.553-0.254-1.111-0.496-1.676-0.726
		c-0.219-0.089-0.438-0.175-0.659-0.26c-0.538-0.208-1.082-0.403-1.63-0.589c-0.211-0.071-0.42-0.146-0.633-0.214
		c-0.717-0.229-1.439-0.444-2.173-0.636c-0.034-0.009-0.067-0.021-0.103-0.029c-0.764-0.197-1.539-0.368-2.32-0.523
		c-0.236-0.047-0.476-0.084-0.713-0.127c-0.55-0.099-1.102-0.188-1.658-0.266c-0.286-0.04-0.572-0.075-0.86-0.109
		c-0.541-0.063-1.086-0.114-1.634-0.156c-0.271-0.021-0.543-0.046-0.816-0.062c-0.756-0.044-1.518-0.069-2.284-0.072
		c-0.05,0-0.1-0.005-0.149-0.005c-20.826,0-38.078,15.3-41.129,35.272c-0.316,2.066-0.48,4.183-0.48,6.337
		c0,0.736,0.021,1.467,0.059,2.193C255.131,51.907,255.155,52.131,255.171,52.358z M197.674,71.509
		c0.139,0.431,0.289,0.856,0.448,1.274c0.049,0.128,0.104,0.251,0.154,0.377c0.115,0.289,0.23,0.578,0.354,0.861
		c0.062,0.142,0.132,0.278,0.197,0.418c0.121,0.264,0.242,0.526,0.372,0.783c0.07,0.139,0.146,0.274,0.219,0.412
		c0.134,0.251,0.267,0.503,0.407,0.749c0.076,0.134,0.157,0.264,0.236,0.396c0.145,0.244,0.291,0.487,0.443,0.725
		c0.08,0.126,0.165,0.248,0.248,0.371c0.159,0.239,0.32,0.478,0.486,0.71c0.082,0.114,0.168,0.226,0.251,0.339
		c0.176,0.236,0.353,0.471,0.536,0.699c0.082,0.104,0.166,0.203,0.25,0.305c0.191,0.233,0.387,0.464,0.586,0.689
		c0.082,0.092,0.164,0.182,0.246,0.271c0.209,0.229,0.422,0.455,0.639,0.677c0.078,0.081,0.158,0.159,0.238,0.239
		c0.228,0.226,0.458,0.446,0.692,0.663c0.075,0.069,0.15,0.138,0.227,0.205c0.245,0.221,0.494,0.437,0.747,0.647
		c0.071,0.059,0.143,0.117,0.215,0.176c0.263,0.215,0.53,0.423,0.802,0.627c0.065,0.049,0.132,0.099,0.198,0.146
		c0.28,0.207,0.565,0.407,0.854,0.602c0.062,0.042,0.122,0.084,0.185,0.125c0.298,0.197,0.6,0.387,0.906,0.572
		c0.056,0.033,0.111,0.067,0.168,0.102c0.313,0.186,0.632,0.364,0.953,0.537c0.052,0.027,0.104,0.057,0.155,0.084
		c0.328,0.174,0.659,0.338,0.995,0.497c0.035,0.017,0.069,0.036,0.105,0.053V86.84c5.661,2.652,12.299,3.256,18.719,1.187
		c13.463-4.339,20.858-18.765,16.518-32.228C243.45,46.564,235.727,40.5,226.823,38.5c0,0-0.002,0-0.003,0
		c-0.48,0-0.967-0.178-1.453-0.24c-0.105-0.014-0.212-0.025-0.317-0.039c-0.373-0.043-0.747-0.083-1.124-0.111
		c-0.144-0.011-0.287-0.02-0.432-0.029c-0.355-0.02-0.712-0.032-1.069-0.037c-0.136-0.002-0.272-0.008-0.409-0.006
		c-0.467,0-0.934,0.011-1.402,0.037c-0.019,0.001-0.037,0.001-0.055,0.002c-0.486,0.029-0.975,0.074-1.463,0.132
		c-0.145,0.017-0.289,0.04-0.434,0.06c-0.344,0.045-0.687,0.098-1.029,0.158c-0.174,0.031-0.348,0.063-0.521,0.098
		c-0.328,0.064-0.656,0.139-0.985,0.217c-0.165,0.039-0.33,0.076-0.495,0.119c-0.435,0.113-0.869,0.237-1.303,0.374
		c-0.045,0.015-0.09,0.024-0.135,0.039c-10.939,3.526-17.872,13.715-17.76,24.634c0.018,1.68,0.201,3.377,0.562,5.069
		C197.178,69.822,197.402,70.667,197.674,71.509z M730,15.5c0-5.522-4.478-10-10-10H575c-5.522,0-10,4.478-10,10v94
		c0,5.522,4.478,10,10,10h145c5.522,0,10-4.478,10-10V15.5z M9.998,93.5h145c5.523,0,10.002-4.973,10.002-10.496v-56
		c0-5.523-4.479-9.504-10.002-9.504H90v-5.496c0-1.657-1.346-2.504-3.002-2.504h-16C69.342,9.5,68,10.347,68,12.004V17.5h-3v-5.496
		c0-1.657-1.346-2.504-3.002-2.504h-16C44.342,9.5,43,10.347,43,12.004V17.5h-4V6.004C39,4.347,37.654,3.5,35.998,3.5h-19
		C15.342,3.5,14,4.347,14,6.004V17.5H9.998C4.475,17.5,0,21.48,0,27.004v56C0,88.527,4.475,93.5,9.998,93.5z M628,205.105v-34.534
		c0-0.125-0.008-0.249-0.01-0.374c-0.004-0.209-0.013-0.418-0.02-0.627c-0.006-0.15-0.008-0.303-0.016-0.452
		c-0.211-5.11-1.35-9.573-4.725-13.474c-4.801-6.885-12.773-11.145-21.803-11.145h-2.863c-9.527,0-17.564,4.521-22.564,12.055
		v-0.373c-2,3.404-3.512,7.377-3.861,11.658c-0.029,0.283-0.05,0.569-0.069,0.854c-0.006,0.108-0.016,0.215-0.021,0.323
		c-0.029,0.515-0.049,1.032-0.049,1.554v34.717c-5,2.569-8,7.044-8,14.734v43.269c0,15.696,12.676,28.209,28.371,28.209H594v52
		h-26.108c-1.253,0-2.892,0.14-2.892,1.394v9.606h71v-9.606c0-1.254-0.813-1.394-2.067-1.394H608v-52h0.312
		c15.697,0,27.688-12.513,27.688-28.209v-43.269C636,212.151,633,207.645,628,205.105z M633,263.291
		c0,13.604-11.084,25.209-24.688,25.209h-15.941c-13.604,0-25.371-11.605-25.371-25.209v-43.269c0-5.431,2-8.915,5-11.146v45.686
		c0,5.512,1,10.633,4,14.879v-1.989c2,2.935,4,5.484,7,7.508v0.262c1,1.314,3,2.442,4,3.349v-1.211c2,0.769,3,1.383,5,1.825v1.24
		c2,0.346,3,0.571,5,0.659v-1.129c1,0.03,1.037,0.546,1.564,0.546h2.863c0.527,0,0.572-0.516,1.572-0.546v1.155
		c2-0.043,3-0.213,5-0.513v-1.413c1-0.352,3-0.812,4-1.371v1.1c2-0.828,4-1.867,5-3.097v-0.857c2-1.673,4-3.706,6-6.019v1.562
		c4-4.439,5-9.96,5-15.94v-45.865c3,2.222,5,5.749,5,11.326V263.291z M548.9,250.27c0.124-3.629-1.553-6.903-4.209-8.959
		c-0.129-5.992-5.079-10.721-11.032-10.518l-226.973,5.437l-102.694-1.269c-3.943-0.069-7.477,2.021-9.488,5.178
		c-3.519,1.924-5.91,5.71-5.838,9.971l0.055,3.281l0.017,0.433c-0.47,1.228-0.737,2.55-0.737,3.931v56.464l-0.305,4.521
		l-0.119,35.762H549V253.379c0-0.56-0.061-1.104-0.146-1.641L548.9,250.27z M227.998,194.5c-1.656,0-3,1-3,3H205v21h19.998
		c0,1,1.344,3,3,3h50c1.656,0,3.002-1.839,3.002-3.496v-21c0-1.657-1.346-2.504-3.002-2.504H227.998z M168.424,198.972
		c2.681-0.48,4.636-2.906,4.459-5.69l-0.106-1.694c-0.146-2.305-1.711-4.178-3.789-4.835l0.741-16.084
		c2.496-1.563,3.306-4.837,1.79-7.378l-0.867-1.46c-0.143-0.238-0.314-0.446-0.485-0.654l0.301-6.524
		c0.184-3.967-1.716-7.565-4.724-9.745l-0.047-8.798c-0.033-6.261-5.184-11.357-11.444-11.323l-9.108,0.048l-68.71,0.365
		l0.051-1.943l-12.439,0.625l-1.174-6.748c1.006-1.137,4.224-5.107,2.903-7.957c-0.886-1.912-3.436-2.736-7.796-2.517
		c-4.489,0.225-7.026,1.323-7.751,3.357c-1.022,2.872,2.216,6.278,3.217,7.239l-0.091,7.162l-10.684,0.537l0.054,0.424
		l-24.527,0.131L6.812,125.57l0.037,6.946l-5.22,0.036l0.08,1.947H1.554H0l0,0l0,0v8.6v3.306v8.079v180.872v8.079v3.305v7.76h10.679
		h120.875h9h0.667h9.107c5.894,0,10.775-4.383,11.328-10.137c0.054-0.369,0.092-0.661,0.109-1.04l0.282-6.088
		c3.632-2.022,6.044-5.94,5.877-10.357l-1.41-37.22l-0.235-44.172L168.424,198.972z M171.894,191.86l0.08,1.261
		c0.146,2.296-1.365,4.315-3.506,4.891l0.472-10.236C170.572,188.443,171.774,189.981,171.894,191.86z M170.636,163.562
		c1.17,1.963,0.759,4.424-0.853,5.917l0.314-6.821L170.636,163.562z M54.651,116.413c-1.088-0.986-3.76-3.973-3.065-5.914
		c0.493-1.384,2.729-2.214,6.465-2.402c3.604-0.182,5.821,0.401,6.416,1.684c0.902,1.945-1.781,5.449-2.893,6.637l-0.244,0.262
		l1.266,7.274l-7.8,0.392l0.098-7.714L54.651,116.413z"/>
	<g>
		<path fill="#78C570" d="M348.5,219.5h-34c-6.342,0-11.5-5.159-11.5-11.5v-8c0-6.341,5.158-11.5,11.5-11.5h7
			c6.342,0,11.5,4.149,11.5,9.25v7.75c0,0.828-0.672,1.5-1.5,1.5s-1.5-0.672-1.5-1.5v-7.75c0-3.388-3.893-6.25-8.5-6.25h-7
			c-4.688,0-8.5,3.813-8.5,8.5v8c0,4.687,3.812,8.5,8.5,8.5h34c4.688,0,8.5-3.813,8.5-8.5v-67c0-4.687-3.701-8.5-8.25-8.5H339
			c-0.828,0-1.5-0.672-1.5-1.5s0.672-1.5,1.5-1.5h9.75c6.203,0,11.25,5.159,11.25,11.5v67C360,214.341,354.842,219.5,348.5,219.5z"
			/>
		<g>
			<g>
				<path fill="#FFFFFF" d="M339,162.5c0,5.5-4.5,10-10,10H217c-5.5,0-10-4.5-10-10v-53c0-5.5,4.5-10,10-10h112c5.5,0,10,4.5,10,10
					V162.5z"/>
			</g>
			<g>
				<rect x="219" y="121.5" fill="#CECECE" width="37" height="40"/>
				<g>
					<path fill="#E8E8E8" d="M240.463,146.46c-0.691-0.11-0.707-2.01-0.707-2.01s2.03-2.011,2.473-4.714
						c1.19,0,1.926-2.872,0.735-3.883c0.05-1.063,1.53-8.354-5.964-8.354s-6.014,7.29-5.965,8.354
						c-1.189,1.012-0.455,3.885,0.734,3.885c0.442,2.703,2.474,4.713,2.474,4.713s-0.017,1.9-0.707,2.01
						C231.311,146.814,223,150.48,223,154.5h14h14C251,150.48,242.689,146.814,240.463,146.46z"/>
				</g>
				<rect x="219" y="109.5" fill="#E8E8E8" width="110" height="6"/>
				<rect x="270" y="127.5" fill="#CECECE" width="59" height="13"/>
				<rect x="270" y="148.5" fill="#E8E8E8" width="59" height="6"/>
			</g>
		</g>
	</g>
	<g>
		<rect x="657" y="141.5" fill="#E8E8E8" width="61" height="110"/>
		<circle fill="#CECECE" cx="688.338" cy="195.606" r="17.5"/>
		<path fill="#E8E8E8" d="M692.221,205.406h-9.677l3.246-2.572l-4.104-3.246l4.409-1.104l-5.328-4.287h6.736l-3.552-4.775h5.941
			l-1.347-3.614l7.348,4.716C695.895,190.523,696.324,201.058,692.221,205.406z"/>
	</g>
	<g>
		<rect x="673" y="196.5" fill="#FFFFFF" width="61" height="110"/>
		<g>
			<circle fill="#CECECE" cx="704.625" cy="282.319" r="11.787"/>
			<path fill="#E8E8E8" d="M707.24,288.92h-6.518l2.187-1.732L700.145,285l2.971-0.742l-3.589-2.887h4.537l-2.393-3.218h4.002
				l-0.907-2.435l4.949,3.178C709.715,278.896,710.004,285.99,707.24,288.92z"/>
		</g>
		<rect x="693" y="207.5" fill="#CECECE" width="12" height="44"/>
		<rect x="710" y="207.5" fill="#E8E8E8" width="6" height="44"/>
	</g>
	<rect x="483" y="264.5" fill="#A1BFC6" width="4" height="30"/>
	<g>
		<g>
			<polygon fill="#E29C00" points="380,26.5 380,30.147 380,187.555 380,192.409 385.5,188.916 391,192.409 391,187.555 391,30.147 
				391,26.5 			"/>
		</g>
		<polygon fill="#2E3033" points="385.547,212.563 387.508,205.443 383.775,206.124 		"/>
		<polygon fill="#ECD9C5" points="387.508,205.443 391.095,192.409 385.547,188.916 380,192.409 383.77,206.104 		"/>
		<polygon opacity="0.15" fill="#2E3033" points="385.642,212.222 385.547,188.943 391.095,192.409 		"/>
		<rect x="380" y="27.5" fill="#DDE1E5" width="11" height="17"/>
		<g>
			<g>
				<path fill="#F19F86" d="M387.628,19.5h-4.161c-1.906,0-3.467,1.112-3.467,3.02v3.98h11v-3.98
					C391,20.612,389.535,19.5,387.628,19.5z"/>
			</g>
		</g>
		<path opacity="0.2" fill="#2D2F30" d="M386,19.5h-2.533c-1.906,0-3.467,1.112-3.467,3.02v4.16v3.468v157.407v4.854l6-4.344V19.5z"
			/>
	</g>
	<g>
		<polygon fill="#A1BFC6" points="419,19.922 418,17.531 417,19.922 417,28.5 419,28.5 		"/>
		<polygon fill="#30768E" points="407,62.5 413.071,33.5 423.123,33.5 427.843,62.5 		"/>
		<rect x="414" y="24.5" fill="#449FC7" width="8" height="9"/>
		<rect x="425" y="159.5" fill="#A1BFC6" width="10" height="4"/>
		<rect x="431" y="132.5" fill="#A1BFC6" width="4" height="30"/>
		<rect x="425" y="124.5" fill="#A1BFC6" width="10" height="8"/>
		<polygon fill="#A1BFC6" points="425,185.071 411,187.501 411,166.5 425,166.5 		"/>
		<path fill="#449FC7" d="M407,62.5v7.21v77.717v17.001c0,3.339,2.732,6.072,6.071,6.072h8.501c3.339,0,6.428-2.733,6.428-6.072
			v-17.001V69.71V62.5H407z"/>
		<polygon fill="#CCDEE2" points="425,185.071 411,184.538 411,187.5 		"/>
		<path opacity="0.2" fill="#2D2F30" d="M411,187.5L411,187.5l5-0.867V24.5h-2v9h-0.929L407,62.5v7.21v77.717v17.001
			c0,2.611,1.675,4.846,4,5.698v14.412V187.5z"/>
	</g>
	<g>
		<path fill="#78C570" d="M553,12.029c0-5.263-4.267-9.529-9.529-9.529h-83.941c-5.263,0-9.529,4.267-9.529,9.529v189.941
			c0,5.263,4.267,9.529,9.529,9.529h83.941c5.263,0,9.529-4.267,9.529-9.529V12.029z"/>
		<path opacity="0.2" fill="#2D2F30" d="M543.471,203.5h-83.941c-5.263,0-9.529-4.267-9.529-9.529v8
			c0,5.263,4.267,9.529,9.529,9.529h83.941c5.263,0,9.529-4.267,9.529-9.529v-8C553,199.233,548.733,203.5,543.471,203.5z"/>
		<rect x="457" y="36.5" fill="#FFFFFF" width="88" height="134"/>
		<circle fill="#FFFFFF" cx="501.458" cy="189.106" r="10.482"/>
		<g>
			<path fill="#78C570" d="M506,186.5c0-1.104-0.896-2-2-2h-5c-1.104,0-2,0.896-2,2v6c0,1.104,0.896,2,2,2h5c1.104,0,2-0.896,2-2
				V186.5z"/>
		</g>
		<g>
			<rect x="495" y="20.5" fill="#FFFFFF" width="20" height="5"/>
			<circle fill="#FFFFFF" cx="489.947" cy="22.925" r="2.512"/>
		</g>
	</g>
	<g>
		<g>
			<circle fill="#F6FAFB" cx="300.67" cy="45.982" r="41.608"/>
			<circle fill="#1C1F26" cx="300.671" cy="45.982" r="35.116"/>
			<circle fill="#078787" cx="300.671" cy="45.982" r="18.886"/>
			<ellipse fill="#67C1BF" cx="300.671" cy="37.762" rx="11.528" ry="8.348"/>
			<ellipse fill="#F6FAFB" cx="294.636" cy="44.224" rx="4.998" ry="3.618"/>
			
				<ellipse transform="matrix(0.8721 -0.4894 0.4894 0.8721 13.8473 157.805)" fill="#F6FAFB" cx="308.733" cy="52.419" rx="2.351" ry="1.702"/>
			<path opacity="0.2" fill="#2D2F30" d="M300.672,4.373c-22.98,0-41.609,18.629-41.609,41.609c0,12.021,5.105,22.846,13.258,30.442
				l48.274-66.978C314.678,6.214,307.889,4.373,300.672,4.373z"/>
		</g>
		<g>
			<circle fill="#F6FAFB" cx="226.052" cy="60.146" r="25.611"/>
			<circle fill="#1C1F26" cx="226.052" cy="60.146" r="21.616"/>
			<circle fill="#078787" cx="226.052" cy="60.146" r="11.625"/>
			
				<ellipse transform="matrix(0.9518 -0.3068 0.3068 0.9518 -6.1493 71.5347)" fill="#67C1BF" cx="224.5" cy="55.33" rx="7.096" ry="5.138"/>
			
				<ellipse transform="matrix(0.9518 -0.3066 0.3066 0.9518 -7.7732 71.0339)" fill="#F6FAFB" cx="222.185" cy="60.256" rx="3.076" ry="2.228"/>
			
				<ellipse transform="matrix(0.6801 -0.7331 0.7331 0.6801 28.469 190.0336)" fill="#F6FAFB" cx="231.992" cy="62.395" rx="1.447" ry="1.048"/>
			<path opacity="0.2" fill="#2D2F30" d="M218.195,35.769c-13.464,4.34-20.858,18.772-16.52,32.236
				c2.271,7.043,7.306,12.42,13.516,15.332l15.634-48.357C226.748,34.202,222.424,34.406,218.195,35.769z"/>
		</g>
	</g>
	<g>
		<g>
			<path fill="#FEA501" d="M43,2.5c0-1.656-1.343-3-3-3H21c-1.657,0-3,1.344-3,3v12c0,1.656,1.343,3,3,3h19c1.657,0,3-1.344,3-3V2.5
				z"/>
		</g>
		<g>
			<path fill="#FFFFFF" d="M69,8.5c0-1.656-1.343-3-3-3H50c-1.657,0-3,1.344-3,3v7c0,1.656,1.343,3,3,3h16c1.657,0,3-1.344,3-3V8.5z
				"/>
		</g>
		<g>
			<path fill="#FFFFFF" d="M94,8.5c0-1.656-1.343-3-3-3H75c-1.657,0-3,1.344-3,3v7c0,1.656,1.343,3,3,3h16c1.657,0,3-1.344,3-3V8.5z
				"/>
		</g>
		<g>
			<path fill="#53C0B9" d="M169,79.5c0,5.523-4.477,10-10,10H14c-5.523,0-10-4.477-10-10v-56c0-5.523,4.477-10,10-10h145
				c5.523,0,10,4.477,10,10V79.5z"/>
		</g>
		<rect x="18" y="28.5" fill="#FFFFFF" width="76" height="48"/>
		<g>
			<circle fill="#42938B" cx="110.524" cy="39.062" r="5.604"/>
			<circle fill="#42938B" cx="119.865" cy="53.072" r="5.604"/>
			<circle fill="#42938B" cx="142.281" cy="53.072" r="5.604"/>
			<circle fill="#42938B" cx="110.524" cy="66.149" r="5.604"/>
			<circle fill="#42938B" cx="131.073" cy="39.062" r="5.604"/>
			<circle fill="#42938B" cx="131.073" cy="66.149" r="5.604"/>
			<circle fill="#42938B" cx="151.622" cy="39.062" r="5.604"/>
			<circle fill="#42938B" cx="151.622" cy="66.149" r="5.604"/>
		</g>
		<circle fill="#CECECE" cx="38.342" cy="53.24" r="17.916"/>
		<circle fill="#E8E8E8" cx="38.342" cy="53.24" r="13.869"/>
		<circle fill="#CECECE" cx="73.835" cy="53.24" r="17.916"/>
		<circle fill="#E8E8E8" cx="73.835" cy="53.24" r="13.868"/>
	</g>
	<g>
		<path fill="#9CA5AF" d="M612.316,287.5h-15.941C580.68,287.5,568,275.483,568,259.787v-43.269
			c0-15.696,12.68-18.019,28.375-18.019h15.941c15.697,0,27.684,2.322,27.684,18.019v43.269
			C640,275.483,628.014,287.5,612.316,287.5z M596.375,201.5c-13.604,0-25.375,1.414-25.375,15.019v43.269
			c0,13.604,11.771,24.713,25.375,24.713h15.941c13.604,0,24.684-11.109,24.684-24.713v-43.269c0-13.604-11.08-15.019-24.684-15.019
			H596.375z"/>
		<rect x="598" y="286.5" fill="#9CA5AF" width="14" height="56"/>
		<path fill="#449FC7" d="M602.568,140.5c-14.674,0-26.568,11.895-26.568,26.567v82.863c0,14.673,11.895,26.569,26.568,26.569h2.863
			c14.672,0,26.568-11.896,26.568-26.569v-82.863c0-14.673-11.896-26.567-26.568-26.567H602.568z"/>
		<path fill="#9CA5AF" d="M637.937,339.5h-66.041c-1.253,0-2.896,0.636-2.896,1.89v4.555v4.556h71v-4.556v-4.555
			C640,340.136,639.19,339.5,637.937,339.5z"/>
		<path opacity="0.2" fill="#2D2F30" d="M637.937,339.5H612v-55h-5v3.753l0,0V342.5h27.142c1.253,0,2.858,0.673,2.858,1.926v4.555
			v1.52h3v-4.556v-4.555C640,340.136,639.19,339.5,637.937,339.5z"/>
		<g>
			<path fill="#7DC0D8" d="M612,141.521c-2-0.3-3-0.47-5-0.512v136.597c2-0.043,3-0.213,5-0.513V141.521z"/>
			<path fill="#7DC0D8" d="M601,141.034c-2,0.089-3,0.313-5,0.66V276.92c2,0.346,3,0.571,5,0.659V141.034z"/>
			<path fill="#7DC0D8" d="M591,143.549c-1,0.906-3,2.034-4,3.349v124.819c1,1.314,3,2.442,4,3.349V143.549z"/>
			<path fill="#7DC0D8" d="M627,151.616v115.382c4-4.439,5-9.96,5-15.94v-83.501C632,161.576,631,156.056,627,151.616z"/>
			<path fill="#7DC0D8" d="M621,146.302c-1-1.229-3-2.268-5-3.096v132.202c2-0.828,4-1.867,5-3.097V146.302z"/>
			<path fill="#7DC0D8" d="M580,152.678c-3,4.245-4,9.366-4,14.879v83.501c0,5.512,1,10.633,4,14.879V152.678z"/>
		</g>
	</g>
	<g>
		<path fill="#BABABA" d="M537.663,227.289l-334.331,8.008c-5.968,0.205-10.767,5.293-10.664,11.309l0.055,3.281l2.439,69.367
			l0.425,23.154l356.106-2.377l-0.425-25.154l-2.479-71.553l-0.092-5.469C548.596,231.84,543.633,227.086,537.663,227.289z"/>
	</g>
	<g>
		<path fill="#E8E8E8" d="M542.424,235.588l-334.43-4.131c-5.971-0.105-11.023,4.727-11.23,10.738l-0.113,3.281l-4.955,69.512
			l-0.117,35.512h360.949l-4.844-26.623l5.032-71.592l0.188-5.52C553.11,240.754,548.394,235.693,542.424,235.588z"/>
	</g>
	<g>
		<path fill="#FFFFFF" d="M541.705,239.123l-338.739,4.004C196.884,243.229,192,248.234,192,254.25v3.281v69.389v23.58h361v-23.58
			v-71.574v-5.471C553,243.859,547.787,239.02,541.705,239.123z"/>
	</g>
	<rect x="513" y="253.5" fill="#E8E8E8" width="33" height="9"/>
	<rect x="450" y="253.5" fill="#E8E8E8" width="50" height="9"/>
	<rect x="206" y="267.5" fill="#CECECE" width="340" height="3"/>
	<rect x="325" y="276.5" fill="#CECECE" width="114" height="13"/>
	<rect x="325" y="293.5" fill="#CECECE" width="56" height="14"/>
	<rect x="325" y="315.5" fill="#E8E8E8" width="114" height="6"/>
	<rect x="451" y="315.5" fill="#E8E8E8" width="47" height="6"/>
	<rect x="451" y="329.5" fill="#E8E8E8" width="47" height="6"/>
	<rect x="502" y="315.5" fill="#E8E8E8" width="44" height="6"/>
	<rect x="502" y="329.5" fill="#E8E8E8" width="44" height="6"/>
	<rect x="502" y="291.5" fill="#E8E8E8" width="44" height="6"/>
	<rect x="502" y="281.5" fill="#E8E8E8" width="44" height="6"/>
	<rect x="502" y="303.5" fill="#E8E8E8" width="44" height="6"/>
	<rect x="325" y="329.5" fill="#E8E8E8" width="114" height="6"/>
	<rect x="206" y="276.5" fill="#CECECE" width="113" height="59"/>
	<path fill="#E8E8E8" d="M245.242,295.555c0,2.055-0.715,3.807-2.145,5.246c-1.431,1.439-3.167,2.16-5.207,2.16
		c-2.044,0-3.778-0.721-5.211-2.16c-1.427-1.439-2.144-3.191-2.144-5.246c0-2.059,0.717-3.809,2.144-5.246
		c1.433-1.443,3.167-2.162,5.211-2.162c2.04,0,3.776,0.719,5.207,2.162C244.527,291.746,245.242,293.496,245.242,295.555z
		 M295.33,310.365v17.281h-64.794v-7.406l14.728-12.344l7.36,6.174l23.563-19.752L295.33,310.365z"/>
	<g>
		<rect x="451" y="276.5" fill="#CECECE" width="47" height="33"/>
		<path fill="#E8E8E8" d="M465.002,286.646c0,1.223-0.396,2.264-1.188,3.121c-0.792,0.855-1.754,1.285-2.883,1.285
			c-1.132,0-2.092-0.43-2.885-1.285c-0.79-0.857-1.188-1.898-1.188-3.121c0-1.225,0.397-2.266,1.188-3.121
			c0.793-0.859,1.753-1.287,2.885-1.287c1.129,0,2.091,0.428,2.883,1.287C464.605,284.381,465.002,285.422,465.002,286.646z
			 M492.73,295.457v10.281h-35.871v-4.406l8.154-7.344l4.074,3.672l13.045-11.75L492.73,295.457z"/>
	</g>
	<text transform="matrix(1 0 0 1 206 262.5)" fill="#E8E8E8" font-family="'HelveticaNeue-Bold'" font-size="12">news</text>
	<g>
		<path fill="#42938B" d="M283,214.5c0,1.657-1.344,3-3,3h-48c-1.656,0-3-1.343-3-3v-21c0-1.657,1.344-3,3-3h48c1.656,0,3,1.343,3,3
			V214.5z"/>
		<rect x="210" y="193.5" fill="#CECECE" width="22" height="21"/>
		<rect x="209" y="193.5" fill="#E8E8E8" width="1" height="21"/>
		<g>
			<rect x="217" y="205.5" fill="#9B9B9B" width="4" height="5"/>
			<rect x="217" y="197.5" fill="#9B9B9B" width="4" height="5"/>
		</g>
		<path fill="#53C0B9" d="M285,214.5c0,1.657-1.344,3-3,3h-48c-1.656,0-3-1.343-3-3v-21c0-1.657,1.344-3,3-3h48c1.656,0,3,1.343,3,3
			V214.5z"/>
	</g>
	<g>
		<circle fill="#A7A7A8" cx="721.575" cy="35.219" r="11.976"/>
		<circle fill="#848484" cx="721.575" cy="35.219" r="9.181"/>
		<path fill="#449FC7" d="M717.517,110.5c5.279,0,9.483-4.595,9.483-9.871V12.102c0-5.278-4.204-9.602-9.483-9.602H579.11
			c-5.28,0-9.11,4.323-9.11,9.602v88.527c0,5.276,3.83,9.871,9.11,9.871H717.517z"/>
		<path fill="#53C0B9" d="M717.517,110.5c5.279,0,9.483-4.595,9.483-9.871V12.102c0-5.278-4.204-9.602-9.483-9.602H579.11
			c-5.28,0-9.11,4.323-9.11,9.602v88.527c0,5.276,3.83,9.871,9.11,9.871H717.517z"/>
		<path fill="#35968D" d="M717.517,109.5H579.11c-5.28,0-9.11-4.595-9.11-9.871v7c0,5.276,3.83,9.871,9.11,9.871h138.406
			c5.279,0,9.483-4.595,9.483-9.871v-7C727,104.905,722.796,109.5,717.517,109.5z"/>
		<g>
			<path fill="#1C1F26" d="M721.127,21.904c0-8.233-6.674-14.907-14.906-14.907c-8.229,0-14.906,6.674-14.906,14.907
				c0,8.229,6.677,14.903,14.906,14.903C714.453,36.808,721.127,30.134,721.127,21.904z"/>
			<path fill="#2F333A" d="M717.647,21.904c0-6.312-5.115-11.431-11.427-11.431s-11.43,5.118-11.43,11.431
				c0,6.309,5.118,11.427,11.43,11.427S717.647,28.213,717.647,21.904z"/>
		</g>
		<path fill="#F6FAFB" d="M689.657,51.932c0-24.916-20.197-45.113-45.11-45.113c-24.918,0-45.117,20.197-45.117,45.113
			s20.199,45.117,45.117,45.117C669.46,97.049,689.657,76.848,689.657,51.932z"/>
		<path fill="#484C51" d="M682.617,51.932c0-21.025-17.044-38.073-38.07-38.073c-21.031,0-38.075,17.048-38.075,38.073
			c0,21.029,17.044,38.076,38.075,38.076C665.573,90.008,682.617,72.961,682.617,51.932z"/>
		<g>
			<defs>
				<path id="SVGID_1_" d="M682.617,51.932c0-21.025-17.044-38.073-38.07-38.073c-21.031,0-38.075,17.048-38.075,38.073
					c0,21.029,17.044,38.076,38.075,38.076C665.573,90.008,682.617,72.961,682.617,51.932z"/>
			</defs>
			<clipPath id="SVGID_2_">
				<use xlink:href="#SVGID_1_"  overflow="visible"/>
			</clipPath>
			<g clip-path="url(#SVGID_2_)">
				<g>
					<g>
						<g>
							<g>
								<g>
									<g>
										<path fill="#696E72" d="M546.571-1.332c0-1.488-1.208-2.693-2.691-2.693c-1.487,0-2.691,1.205-2.691,2.693
											c0,1.484,1.204,2.692,2.691,2.692C545.363,1.36,546.571,0.152,546.571-1.332z"/>
										<circle fill="#696E72" cx="548.365" cy="5.395" r="2.691"/>
										<circle fill="#696E72" cx="559.129" cy="5.395" r="2.691"/>
										<path fill="#696E72" d="M546.571,11.675c0-1.488-1.208-2.693-2.691-2.693c-1.487,0-2.691,1.205-2.691,2.693
											c0,1.485,1.204,2.69,2.691,2.69C545.363,14.365,546.571,13.16,546.571,11.675z"/>
										<path fill="#696E72" d="M556.438-1.332c0-1.488-1.204-2.693-2.692-2.693c-1.484,0-2.688,1.205-2.688,2.693
											c0,1.484,1.204,2.692,2.688,2.692C555.233,1.36,556.438,0.152,556.438-1.332z"/>
										<circle fill="#696E72" cx="553.747" cy="11.675" r="2.69"/>
										<path fill="#696E72" d="M566.306-1.332c0-1.488-1.204-2.693-2.692-2.693c-1.487,0-2.689,1.205-2.689,2.693
											c0,1.484,1.202,2.692,2.689,2.692C565.102,1.36,566.306,0.152,566.306-1.332z"/>
										<circle fill="#696E72" cx="563.615" cy="11.675" r="2.691"/>
									</g>
									<circle fill="#696E72" cx="569.973" cy="5.395" r="2.691"/>
									<circle fill="#696E72" cx="580.739" cy="5.395" r="2.69"/>
									<path fill="#696E72" d="M578.049-1.332c0-1.488-1.205-2.693-2.693-2.693c-1.486,0-2.691,1.205-2.691,2.693
										c0,1.484,1.205,2.692,2.691,2.692C576.844,1.36,578.049,0.152,578.049-1.332z"/>
									<circle fill="#696E72" cx="575.356" cy="11.675" r="2.692"/>
								</g>
								<g>
									<g>
										<path fill="#696E72" d="M588.83-1.332c0-1.488-1.205-2.693-2.693-2.693c-1.484,0-2.691,1.205-2.691,2.693
											c0,1.484,1.207,2.692,2.691,2.692C587.625,1.36,588.83,0.152,588.83-1.332z"/>
										<circle fill="#696E72" cx="590.624" cy="5.395" r="2.692"/>
										<circle fill="#696E72" cx="601.389" cy="5.395" r="2.691"/>
										<circle fill="#696E72" cx="586.138" cy="11.675" r="2.692"/>
										<path fill="#696E72" d="M598.697-1.332c0-1.488-1.205-2.693-2.69-2.693c-1.488,0-2.691,1.205-2.691,2.693
											c0,1.484,1.203,2.692,2.691,2.692C597.492,1.36,598.697,0.152,598.697-1.332z"/>
										<circle fill="#696E72" cx="596.006" cy="11.675" r="2.691"/>
										<path fill="#696E72" d="M608.563-1.332c0-1.488-1.205-2.693-2.689-2.693c-1.487,0-2.692,1.205-2.692,2.693
											c0,1.484,1.205,2.692,2.692,2.692C607.358,1.36,608.563,0.152,608.563-1.332z"/>
										<circle fill="#696E72" cx="605.873" cy="11.675" r="2.691"/>
									</g>
									<circle fill="#696E72" cx="612.233" cy="5.395" r="2.69"/>
									<circle fill="#696E72" cx="622.998" cy="5.395" r="2.692"/>
									<path fill="#696E72" d="M620.306-1.332c0-1.488-1.204-2.693-2.692-2.693c-1.484,0-2.689,1.205-2.689,2.693
										c0,1.484,1.205,2.692,2.689,2.692C619.102,1.36,620.306,0.152,620.306-1.332z"/>
									<circle fill="#696E72" cx="617.615" cy="11.675" r="2.691"/>
								</g>
							</g>
							<g>
								<g>
									<g>
										<path fill="#696E72" d="M631.087-1.332c0-1.488-1.205-2.693-2.689-2.693c-1.487,0-2.692,1.205-2.692,2.693
											c0,1.484,1.205,2.692,2.692,2.692C629.882,1.36,631.087,0.152,631.087-1.332z"/>
										<circle fill="#696E72" cx="632.883" cy="5.395" r="2.69"/>
										<circle fill="#696E72" cx="643.647" cy="5.395" r="2.692"/>
										<circle fill="#696E72" cx="628.396" cy="11.675" r="2.691"/>
										<path fill="#696E72" d="M640.955-1.332c0-1.488-1.206-2.693-2.689-2.693c-1.486,0-2.692,1.205-2.692,2.693
											c0,1.484,1.206,2.692,2.692,2.692C639.749,1.36,640.955,0.152,640.955-1.332z"/>
										<circle fill="#696E72" cx="638.264" cy="11.675" r="2.691"/>
										<path fill="#696E72" d="M650.824-1.332c0-1.488-1.206-2.693-2.693-2.693c-1.483,0-2.692,1.205-2.692,2.693
											c0,1.484,1.209,2.692,2.692,2.692C649.618,1.36,650.824,0.152,650.824-1.332z"/>
										<path fill="#696E72" d="M650.824,11.675c0-1.488-1.206-2.693-2.693-2.693c-1.483,0-2.692,1.205-2.692,2.693
											c0,1.485,1.209,2.69,2.692,2.69C649.618,14.365,650.824,13.16,650.824,11.675z"/>
									</g>
									<circle fill="#696E72" cx="654.492" cy="5.395" r="2.692"/>
									<circle fill="#696E72" cx="665.256" cy="5.395" r="2.691"/>
									<path fill="#696E72" d="M662.565-1.332c0-1.488-1.205-2.693-2.691-2.693c-1.484,0-2.69,1.205-2.69,2.693
										c0,1.484,1.206,2.692,2.69,2.692C661.36,1.36,662.565,0.152,662.565-1.332z"/>
									<circle fill="#696E72" cx="659.875" cy="11.675" r="2.691"/>
								</g>
								<g>
									<g>
										<path fill="#696E72" d="M673.347-1.332c0-1.488-1.205-2.693-2.692-2.693c-1.486,0-2.691,1.205-2.691,2.693
											c0,1.484,1.205,2.692,2.691,2.692C672.142,1.36,673.347,0.152,673.347-1.332z"/>
										<path fill="#696E72" d="M677.83,5.395c0-1.486-1.201-2.691-2.691-2.691c-1.484,0-2.689,1.205-2.689,2.691
											c0,1.487,1.205,2.69,2.689,2.69C676.629,8.085,677.83,6.882,677.83,5.395z"/>
										<circle fill="#696E72" cx="685.906" cy="5.395" r="2.691"/>
										<circle fill="#696E72" cx="670.655" cy="11.675" r="2.692"/>
										<path fill="#696E72" d="M683.215-1.332c0-1.488-1.205-2.693-2.692-2.693c-1.484,0-2.692,1.205-2.692,2.693
											c0,1.484,1.208,2.692,2.692,2.692C682.01,1.36,683.215,0.152,683.215-1.332z"/>
										<circle fill="#696E72" cx="680.522" cy="11.675" r="2.692"/>
										<path fill="#696E72" d="M693.081-1.332c0-1.488-1.202-2.693-2.69-2.693c-1.486,0-2.691,1.205-2.691,2.693
											c0,1.484,1.205,2.692,2.691,2.692C691.879,1.36,693.081,0.152,693.081-1.332z"/>
										<circle fill="#696E72" cx="690.39" cy="11.675" r="2.691"/>
									</g>
									<circle fill="#696E72" cx="696.751" cy="5.395" r="2.691"/>
									<path fill="#696E72" d="M710.208,5.395c0-1.486-1.208-2.691-2.692-2.691c-1.488,0-2.693,1.205-2.693,2.691
										c0,1.487,1.205,2.69,2.693,2.69C709,8.085,710.208,6.882,710.208,5.395z"/>
									<path fill="#696E72" d="M704.822-1.332c0-1.488-1.205-2.693-2.689-2.693c-1.485,0-2.69,1.205-2.69,2.693
										c0,1.484,1.205,2.692,2.69,2.692C703.617,1.36,704.822,0.152,704.822-1.332z"/>
									<circle fill="#696E72" cx="702.132" cy="11.675" r="2.69"/>
								</g>
							</g>
						</g>
						<g>
							<g>
								<g>
									<g>
										<circle fill="#696E72" cx="548.365" cy="18.841" r="2.691"/>
										<circle fill="#696E72" cx="559.129" cy="18.841" r="2.691"/>
										<path fill="#696E72" d="M546.571,25.122c0-1.487-1.208-2.692-2.691-2.692c-1.487,0-2.691,1.205-2.691,2.692
											c0,1.484,1.204,2.691,2.691,2.691C545.363,27.813,546.571,26.606,546.571,25.122z"/>
										<circle fill="#696E72" cx="553.747" cy="25.122" r="2.69"/>
										<circle fill="#696E72" cx="563.615" cy="25.122" r="2.691"/>
									</g>
									<circle fill="#696E72" cx="569.973" cy="18.841" r="2.691"/>
									<circle fill="#696E72" cx="580.739" cy="18.841" r="2.69"/>
									<circle fill="#696E72" cx="575.356" cy="25.122" r="2.692"/>
								</g>
								<g>
									<g>
										<circle fill="#696E72" cx="590.624" cy="18.841" r="2.692"/>
										<circle fill="#696E72" cx="601.389" cy="18.841" r="2.691"/>
										<circle fill="#696E72" cx="586.138" cy="25.122" r="2.692"/>
										<circle fill="#696E72" cx="596.006" cy="25.122" r="2.691"/>
										<circle fill="#696E72" cx="605.873" cy="25.122" r="2.691"/>
									</g>
									<circle fill="#696E72" cx="612.233" cy="18.841" r="2.69"/>
									<circle fill="#696E72" cx="622.998" cy="18.841" r="2.692"/>
									<circle fill="#696E72" cx="617.615" cy="25.122" r="2.691"/>
								</g>
							</g>
							<g>
								<g>
									<g>
										<circle fill="#696E72" cx="632.883" cy="18.841" r="2.69"/>
										<circle fill="#696E72" cx="643.647" cy="18.841" r="2.692"/>
										<circle fill="#696E72" cx="628.396" cy="25.122" r="2.691"/>
										<circle fill="#696E72" cx="638.264" cy="25.122" r="2.691"/>
										<path fill="#696E72" d="M650.824,25.122c0-1.487-1.206-2.692-2.693-2.692c-1.483,0-2.692,1.205-2.692,2.692
											c0,1.484,1.209,2.691,2.692,2.691C649.618,27.813,650.824,26.606,650.824,25.122z"/>
									</g>
									<circle fill="#696E72" cx="654.492" cy="18.841" r="2.692"/>
									<circle fill="#696E72" cx="665.256" cy="18.841" r="2.691"/>
									<circle fill="#696E72" cx="659.875" cy="25.122" r="2.691"/>
								</g>
								<g>
									<g>
										<path fill="#696E72" d="M677.83,18.841c0-1.486-1.201-2.689-2.691-2.689c-1.484,0-2.689,1.203-2.689,2.689
											s1.205,2.69,2.689,2.69C676.629,21.531,677.83,20.327,677.83,18.841z"/>
										<circle fill="#696E72" cx="685.906" cy="18.841" r="2.691"/>
										<circle fill="#696E72" cx="670.655" cy="25.122" r="2.692"/>
										<circle fill="#696E72" cx="680.522" cy="25.122" r="2.692"/>
										<circle fill="#696E72" cx="690.39" cy="25.122" r="2.691"/>
									</g>
									<circle fill="#696E72" cx="696.751" cy="18.841" r="2.691"/>
									<path fill="#696E72" d="M710.208,18.841c0-1.486-1.208-2.689-2.692-2.689c-1.488,0-2.693,1.203-2.693,2.689
										s1.205,2.69,2.693,2.69C709,21.531,710.208,20.327,710.208,18.841z"/>
									<circle fill="#696E72" cx="702.132" cy="25.122" r="2.69"/>
								</g>
							</g>
						</g>
					</g>
					<g>
						<g>
							<g>
								<g>
									<g>
										<circle fill="#696E72" cx="548.365" cy="32.288" r="2.691"/>
										<circle fill="#696E72" cx="559.129" cy="32.288" r="2.691"/>
										<path fill="#696E72" d="M546.571,38.566c0-1.487-1.208-2.692-2.691-2.692c-1.487,0-2.691,1.205-2.691,2.692
											c0,1.486,1.204,2.691,2.691,2.691C545.363,41.258,546.571,40.053,546.571,38.566z"/>
										<circle fill="#696E72" cx="553.747" cy="38.566" r="2.69"/>
										<circle fill="#696E72" cx="563.615" cy="38.566" r="2.691"/>
									</g>
									<circle fill="#696E72" cx="569.973" cy="32.288" r="2.691"/>
									<circle fill="#696E72" cx="580.739" cy="32.288" r="2.69"/>
									<circle fill="#696E72" cx="575.356" cy="38.566" r="2.692"/>
								</g>
								<g>
									<g>
										<circle fill="#696E72" cx="590.624" cy="32.288" r="2.692"/>
										<circle fill="#696E72" cx="601.389" cy="32.288" r="2.691"/>
										<circle fill="#696E72" cx="586.138" cy="38.566" r="2.692"/>
										<circle fill="#696E72" cx="596.006" cy="38.566" r="2.691"/>
										<circle fill="#696E72" cx="605.873" cy="38.566" r="2.691"/>
									</g>
									<circle fill="#696E72" cx="612.233" cy="32.288" r="2.69"/>
									<circle fill="#696E72" cx="622.998" cy="32.288" r="2.692"/>
									<circle fill="#696E72" cx="617.615" cy="38.566" r="2.691"/>
								</g>
							</g>
							<g>
								<g>
									<g>
										<circle fill="#696E72" cx="632.883" cy="32.288" r="2.69"/>
										<circle fill="#696E72" cx="643.647" cy="32.288" r="2.692"/>
										<circle fill="#696E72" cx="628.396" cy="38.566" r="2.691"/>
										<circle fill="#696E72" cx="638.264" cy="38.566" r="2.691"/>
										<path fill="#696E72" d="M650.824,38.566c0-1.487-1.206-2.692-2.693-2.692c-1.483,0-2.692,1.205-2.692,2.692
											c0,1.486,1.209,2.691,2.692,2.691C649.618,41.258,650.824,40.053,650.824,38.566z"/>
									</g>
									<circle fill="#696E72" cx="654.492" cy="32.288" r="2.692"/>
									<circle fill="#696E72" cx="665.256" cy="32.288" r="2.691"/>
									<circle fill="#696E72" cx="659.875" cy="38.566" r="2.691"/>
								</g>
								<g>
									<g>
										<path fill="#696E72" d="M677.83,32.288c0-1.487-1.201-2.693-2.691-2.693c-1.484,0-2.689,1.206-2.689,2.693
											c0,1.486,1.205,2.691,2.689,2.691C676.629,34.979,677.83,33.774,677.83,32.288z"/>
										<circle fill="#696E72" cx="685.906" cy="32.288" r="2.691"/>
										<circle fill="#696E72" cx="670.655" cy="38.566" r="2.692"/>
										<circle fill="#696E72" cx="680.522" cy="38.566" r="2.692"/>
										<circle fill="#696E72" cx="690.39" cy="38.566" r="2.691"/>
									</g>
									<circle fill="#696E72" cx="696.751" cy="32.288" r="2.691"/>
									<path fill="#696E72" d="M710.208,32.288c0-1.487-1.208-2.693-2.692-2.693c-1.488,0-2.693,1.206-2.693,2.693
										c0,1.486,1.205,2.691,2.693,2.691C709,34.979,710.208,33.774,710.208,32.288z"/>
									<circle fill="#696E72" cx="702.132" cy="38.566" r="2.69"/>
								</g>
							</g>
						</g>
						<g>
							<g>
								<g>
									<g>
										<circle fill="#696E72" cx="548.365" cy="45.732" r="2.691"/>
										<circle fill="#696E72" cx="559.129" cy="45.732" r="2.691"/>
										<path fill="#696E72" d="M546.571,52.011c0-1.483-1.208-2.689-2.691-2.689c-1.487,0-2.691,1.206-2.691,2.689
											c0,1.488,1.204,2.692,2.691,2.692C545.363,54.703,546.571,53.499,546.571,52.011z"/>
										<path fill="#696E72" d="M556.438,52.011c0-1.483-1.204-2.689-2.692-2.689c-1.484,0-2.688,1.206-2.688,2.689
											c0,1.488,1.204,2.692,2.688,2.692C555.233,54.703,556.438,53.499,556.438,52.011z"/>
										<path fill="#696E72" d="M566.306,52.011c0-1.483-1.204-2.689-2.692-2.689c-1.487,0-2.689,1.206-2.689,2.689
											c0,1.488,1.202,2.692,2.689,2.692C565.102,54.703,566.306,53.499,566.306,52.011z"/>
									</g>
									<circle fill="#696E72" cx="569.973" cy="45.732" r="2.691"/>
									<circle fill="#696E72" cx="580.739" cy="45.732" r="2.69"/>
									<path fill="#696E72" d="M578.049,52.011c0-1.483-1.205-2.689-2.693-2.689c-1.486,0-2.691,1.206-2.691,2.689
										c0,1.488,1.205,2.692,2.691,2.692C576.844,54.703,578.049,53.499,578.049,52.011z"/>
								</g>
								<g>
									<g>
										<circle fill="#696E72" cx="590.624" cy="45.732" r="2.692"/>
										<circle fill="#696E72" cx="601.389" cy="45.732" r="2.691"/>
										<path fill="#696E72" d="M588.83,52.011c0-1.483-1.205-2.689-2.693-2.689c-1.484,0-2.691,1.206-2.691,2.689
											c0,1.488,1.207,2.692,2.691,2.692C587.625,54.703,588.83,53.499,588.83,52.011z"/>
										<path fill="#696E72" d="M598.697,52.011c0-1.483-1.205-2.689-2.69-2.689c-1.488,0-2.691,1.206-2.691,2.689
											c0,1.488,1.203,2.692,2.691,2.692C597.492,54.703,598.697,53.499,598.697,52.011z"/>
										<path fill="#696E72" d="M608.563,52.011c0-1.483-1.205-2.689-2.689-2.689c-1.487,0-2.692,1.206-2.692,2.689
											c0,1.488,1.205,2.692,2.692,2.692C607.358,54.703,608.563,53.499,608.563,52.011z"/>
									</g>
									<circle fill="#696E72" cx="612.233" cy="45.732" r="2.69"/>
									<circle fill="#696E72" cx="622.998" cy="45.732" r="2.692"/>
									<path fill="#696E72" d="M620.306,52.011c0-1.483-1.204-2.689-2.692-2.689c-1.484,0-2.689,1.206-2.689,2.689
										c0,1.488,1.205,2.692,2.689,2.692C619.102,54.703,620.306,53.499,620.306,52.011z"/>
								</g>
							</g>
							<g>
								<g>
									<g>
										<circle fill="#696E72" cx="632.883" cy="45.732" r="2.69"/>
										<circle fill="#696E72" cx="643.647" cy="45.732" r="2.692"/>
										<path fill="#696E72" d="M631.087,52.011c0-1.483-1.205-2.689-2.689-2.689c-1.487,0-2.692,1.206-2.692,2.689
											c0,1.488,1.205,2.692,2.692,2.692C629.882,54.703,631.087,53.499,631.087,52.011z"/>
										<path fill="#696E72" d="M640.955,52.011c0-1.483-1.206-2.689-2.689-2.689c-1.486,0-2.692,1.206-2.692,2.689
											c0,1.488,1.206,2.692,2.692,2.692C639.749,54.703,640.955,53.499,640.955,52.011z"/>
										<path fill="#696E72" d="M650.824,52.011c0-1.483-1.206-2.689-2.693-2.689c-1.483,0-2.692,1.206-2.692,2.689
											c0,1.488,1.209,2.692,2.692,2.692C649.618,54.703,650.824,53.499,650.824,52.011z"/>
									</g>
									<circle fill="#696E72" cx="654.492" cy="45.732" r="2.692"/>
									<circle fill="#696E72" cx="665.256" cy="45.732" r="2.691"/>
									<path fill="#696E72" d="M662.565,52.011c0-1.483-1.205-2.689-2.691-2.689c-1.484,0-2.69,1.206-2.69,2.689
										c0,1.488,1.206,2.692,2.69,2.692C661.36,54.703,662.565,53.499,662.565,52.011z"/>
								</g>
								<g>
									<g>
										<path fill="#696E72" d="M677.83,45.732c0-1.484-1.201-2.689-2.691-2.689c-1.484,0-2.689,1.205-2.689,2.689
											c0,1.487,1.205,2.691,2.689,2.691C676.629,48.424,677.83,47.22,677.83,45.732z"/>
										<circle fill="#696E72" cx="685.906" cy="45.732" r="2.691"/>
										<path fill="#696E72" d="M673.347,52.011c0-1.483-1.205-2.689-2.692-2.689c-1.486,0-2.691,1.206-2.691,2.689
											c0,1.488,1.205,2.692,2.691,2.692C672.142,54.703,673.347,53.499,673.347,52.011z"/>
										<path fill="#696E72" d="M683.215,52.011c0-1.483-1.205-2.689-2.692-2.689c-1.484,0-2.692,1.206-2.692,2.689
											c0,1.488,1.208,2.692,2.692,2.692C682.01,54.703,683.215,53.499,683.215,52.011z"/>
										<path fill="#696E72" d="M693.081,52.011c0-1.483-1.202-2.689-2.69-2.689c-1.486,0-2.691,1.206-2.691,2.689
											c0,1.488,1.205,2.692,2.691,2.692C691.879,54.703,693.081,53.499,693.081,52.011z"/>
									</g>
									<circle fill="#696E72" cx="696.751" cy="45.732" r="2.691"/>
									<path fill="#696E72" d="M710.208,45.732c0-1.484-1.208-2.689-2.692-2.689c-1.488,0-2.693,1.205-2.693,2.689
										c0,1.487,1.205,2.691,2.693,2.691C709,48.424,710.208,47.22,710.208,45.732z"/>
									<path fill="#696E72" d="M704.822,52.011c0-1.483-1.205-2.689-2.689-2.689c-1.485,0-2.69,1.206-2.69,2.689
										c0,1.488,1.205,2.692,2.69,2.692C703.617,54.703,704.822,53.499,704.822,52.011z"/>
								</g>
							</g>
						</g>
					</g>
				</g>
				<g>
					<g>
						<g>
							<g>
								<g>
									<g>
										<circle fill="#696E72" cx="548.365" cy="59.18" r="2.691"/>
										<circle fill="#696E72" cx="559.129" cy="59.18" r="2.691"/>
										<path fill="#696E72" d="M546.571,65.459c0-1.488-1.208-2.692-2.691-2.692c-1.487,0-2.691,1.204-2.691,2.692
											c0,1.483,1.204,2.691,2.691,2.691C545.363,68.15,546.571,66.942,546.571,65.459z"/>
										<path fill="#696E72" d="M556.438,65.459c0-1.488-1.204-2.692-2.692-2.692c-1.484,0-2.688,1.204-2.688,2.692
											c0,1.483,1.204,2.691,2.688,2.691C555.233,68.15,556.438,66.942,556.438,65.459z"/>
										<path fill="#696E72" d="M566.306,65.459c0-1.488-1.204-2.692-2.692-2.692c-1.487,0-2.689,1.204-2.689,2.692
											c0,1.483,1.202,2.691,2.689,2.691C565.102,68.15,566.306,66.942,566.306,65.459z"/>
									</g>
									<circle fill="#696E72" cx="569.973" cy="59.18" r="2.691"/>
									<circle fill="#696E72" cx="580.739" cy="59.18" r="2.69"/>
									<path fill="#696E72" d="M578.049,65.459c0-1.488-1.205-2.692-2.693-2.692c-1.486,0-2.691,1.204-2.691,2.692
										c0,1.483,1.205,2.691,2.691,2.691C576.844,68.15,578.049,66.942,578.049,65.459z"/>
								</g>
								<g>
									<g>
										<circle fill="#696E72" cx="590.624" cy="59.18" r="2.692"/>
										<circle fill="#696E72" cx="601.389" cy="59.18" r="2.691"/>
										<path fill="#696E72" d="M588.83,65.459c0-1.488-1.205-2.692-2.693-2.692c-1.484,0-2.691,1.204-2.691,2.692
											c0,1.483,1.207,2.691,2.691,2.691C587.625,68.15,588.83,66.942,588.83,65.459z"/>
										<path fill="#696E72" d="M598.697,65.459c0-1.488-1.205-2.692-2.69-2.692c-1.488,0-2.691,1.204-2.691,2.692
											c0,1.483,1.203,2.691,2.691,2.691C597.492,68.15,598.697,66.942,598.697,65.459z"/>
										<path fill="#696E72" d="M608.563,65.459c0-1.488-1.205-2.692-2.689-2.692c-1.487,0-2.692,1.204-2.692,2.692
											c0,1.483,1.205,2.691,2.692,2.691C607.358,68.15,608.563,66.942,608.563,65.459z"/>
									</g>
									<circle fill="#696E72" cx="612.233" cy="59.18" r="2.69"/>
									<circle fill="#696E72" cx="622.998" cy="59.18" r="2.692"/>
									<path fill="#696E72" d="M620.306,65.459c0-1.488-1.204-2.692-2.692-2.692c-1.484,0-2.689,1.204-2.689,2.692
										c0,1.483,1.205,2.691,2.689,2.691C619.102,68.15,620.306,66.942,620.306,65.459z"/>
								</g>
							</g>
							<g>
								<g>
									<g>
										<circle fill="#696E72" cx="632.883" cy="59.18" r="2.69"/>
										<circle fill="#696E72" cx="643.647" cy="59.18" r="2.692"/>
										<path fill="#696E72" d="M631.087,65.459c0-1.488-1.205-2.692-2.689-2.692c-1.487,0-2.692,1.204-2.692,2.692
											c0,1.483,1.205,2.691,2.692,2.691C629.882,68.15,631.087,66.942,631.087,65.459z"/>
										<path fill="#696E72" d="M640.955,65.459c0-1.488-1.206-2.692-2.689-2.692c-1.486,0-2.692,1.204-2.692,2.692
											c0,1.483,1.206,2.691,2.692,2.691C639.749,68.15,640.955,66.942,640.955,65.459z"/>
										<path fill="#696E72" d="M650.824,65.459c0-1.488-1.206-2.692-2.693-2.692c-1.483,0-2.692,1.204-2.692,2.692
											c0,1.483,1.209,2.691,2.692,2.691C649.618,68.15,650.824,66.942,650.824,65.459z"/>
									</g>
									<circle fill="#696E72" cx="654.492" cy="59.18" r="2.692"/>
									<circle fill="#696E72" cx="665.256" cy="59.18" r="2.691"/>
									<path fill="#696E72" d="M662.565,65.459c0-1.488-1.205-2.692-2.691-2.692c-1.484,0-2.69,1.204-2.69,2.692
										c0,1.483,1.206,2.691,2.69,2.691C661.36,68.15,662.565,66.942,662.565,65.459z"/>
								</g>
								<g>
									<g>
										<path fill="#696E72" d="M677.83,59.18c0-1.487-1.201-2.692-2.691-2.692c-1.484,0-2.689,1.205-2.689,2.692
											c0,1.484,1.205,2.691,2.689,2.691C676.629,61.871,677.83,60.664,677.83,59.18z"/>
										<circle fill="#696E72" cx="685.906" cy="59.18" r="2.691"/>
										<path fill="#696E72" d="M673.347,65.459c0-1.488-1.205-2.692-2.692-2.692c-1.486,0-2.691,1.204-2.691,2.692
											c0,1.483,1.205,2.691,2.691,2.691C672.142,68.15,673.347,66.942,673.347,65.459z"/>
										<path fill="#696E72" d="M683.215,65.459c0-1.488-1.205-2.692-2.692-2.692c-1.484,0-2.692,1.204-2.692,2.692
											c0,1.483,1.208,2.691,2.692,2.691C682.01,68.15,683.215,66.942,683.215,65.459z"/>
										<path fill="#696E72" d="M693.081,65.459c0-1.488-1.202-2.692-2.69-2.692c-1.486,0-2.691,1.204-2.691,2.692
											c0,1.483,1.205,2.691,2.691,2.691C691.879,68.15,693.081,66.942,693.081,65.459z"/>
									</g>
									<circle fill="#696E72" cx="696.751" cy="59.18" r="2.691"/>
									<path fill="#696E72" d="M710.208,59.18c0-1.487-1.208-2.692-2.692-2.692c-1.488,0-2.693,1.205-2.693,2.692
										c0,1.484,1.205,2.691,2.693,2.691C709,61.871,710.208,60.664,710.208,59.18z"/>
									<path fill="#696E72" d="M704.822,65.459c0-1.488-1.205-2.692-2.689-2.692c-1.485,0-2.69,1.204-2.69,2.692
										c0,1.483,1.205,2.691,2.69,2.691C703.617,68.15,704.822,66.942,704.822,65.459z"/>
								</g>
							</g>
						</g>
						<g>
							<g>
								<g>
									<g>
										<circle fill="#696E72" cx="548.365" cy="72.624" r="2.691"/>
										<circle fill="#696E72" cx="559.129" cy="72.624" r="2.691"/>
										<path fill="#696E72" d="M546.571,78.904c0-1.488-1.208-2.69-2.691-2.69c-1.487,0-2.691,1.202-2.691,2.69
											c0,1.486,1.204,2.691,2.691,2.691C545.363,81.596,546.571,80.391,546.571,78.904z"/>
										<circle fill="#696E72" cx="553.747" cy="78.904" r="2.69"/>
										<circle fill="#696E72" cx="563.615" cy="78.904" r="2.691"/>
									</g>
									<circle fill="#696E72" cx="569.973" cy="72.624" r="2.691"/>
									<circle fill="#696E72" cx="580.739" cy="72.624" r="2.69"/>
									<circle fill="#696E72" cx="575.356" cy="78.904" r="2.692"/>
								</g>
								<g>
									<g>
										<circle fill="#696E72" cx="590.624" cy="72.624" r="2.692"/>
										<circle fill="#696E72" cx="601.389" cy="72.624" r="2.691"/>
										<circle fill="#696E72" cx="586.138" cy="78.904" r="2.692"/>
										<circle fill="#696E72" cx="596.006" cy="78.904" r="2.691"/>
										<circle fill="#696E72" cx="605.873" cy="78.904" r="2.691"/>
									</g>
									<circle fill="#696E72" cx="612.233" cy="72.624" r="2.69"/>
									<circle fill="#696E72" cx="622.998" cy="72.624" r="2.692"/>
									<circle fill="#696E72" cx="617.615" cy="78.904" r="2.691"/>
								</g>
							</g>
							<g>
								<g>
									<g>
										<circle fill="#696E72" cx="632.883" cy="72.624" r="2.69"/>
										<circle fill="#696E72" cx="643.647" cy="72.624" r="2.692"/>
										<circle fill="#696E72" cx="628.396" cy="78.904" r="2.691"/>
										<circle fill="#696E72" cx="638.264" cy="78.904" r="2.691"/>
										<path fill="#696E72" d="M650.824,78.904c0-1.488-1.206-2.69-2.693-2.69c-1.483,0-2.692,1.202-2.692,2.69
											c0,1.486,1.209,2.691,2.692,2.691C649.618,81.596,650.824,80.391,650.824,78.904z"/>
									</g>
									<circle fill="#696E72" cx="654.492" cy="72.624" r="2.692"/>
									<circle fill="#696E72" cx="665.256" cy="72.624" r="2.691"/>
									<circle fill="#696E72" cx="659.875" cy="78.904" r="2.691"/>
								</g>
								<g>
									<g>
										<path fill="#696E72" d="M677.83,72.624c0-1.487-1.201-2.69-2.691-2.69c-1.484,0-2.689,1.203-2.689,2.69
											c0,1.488,1.205,2.692,2.689,2.692C676.629,75.316,677.83,74.112,677.83,72.624z"/>
										<circle fill="#696E72" cx="685.906" cy="72.624" r="2.691"/>
										<circle fill="#696E72" cx="670.655" cy="78.904" r="2.692"/>
										<circle fill="#696E72" cx="680.522" cy="78.904" r="2.692"/>
										<circle fill="#696E72" cx="690.39" cy="78.904" r="2.691"/>
									</g>
									<circle fill="#696E72" cx="696.751" cy="72.624" r="2.691"/>
									<path fill="#696E72" d="M710.208,72.624c0-1.487-1.208-2.69-2.692-2.69c-1.488,0-2.693,1.203-2.693,2.69
										c0,1.488,1.205,2.692,2.693,2.692C709,75.316,710.208,74.112,710.208,72.624z"/>
									<circle fill="#696E72" cx="702.132" cy="78.904" r="2.69"/>
								</g>
							</g>
						</g>
					</g>
					<g>
						<g>
							<g>
								<g>
									<g>
										<circle fill="#696E72" cx="548.365" cy="86.07" r="2.691"/>
										<circle fill="#696E72" cx="559.129" cy="86.07" r="2.691"/>
										<path fill="#696E72" d="M546.571,92.351c0-1.487-1.208-2.69-2.691-2.69c-1.487,0-2.691,1.203-2.691,2.69
											c0,1.484,1.204,2.689,2.691,2.689C545.363,95.04,546.571,93.835,546.571,92.351z"/>
										<circle fill="#696E72" cx="553.747" cy="92.351" r="2.69"/>
										<circle fill="#696E72" cx="563.615" cy="92.351" r="2.691"/>
									</g>
									<circle fill="#696E72" cx="569.973" cy="86.07" r="2.691"/>
									<circle fill="#696E72" cx="580.739" cy="86.07" r="2.69"/>
									<circle fill="#696E72" cx="575.356" cy="92.351" r="2.692"/>
								</g>
								<g>
									<g>
										<circle fill="#696E72" cx="590.624" cy="86.07" r="2.692"/>
										<circle fill="#696E72" cx="601.389" cy="86.07" r="2.691"/>
										<circle fill="#696E72" cx="586.138" cy="92.351" r="2.692"/>
										<circle fill="#696E72" cx="596.006" cy="92.351" r="2.691"/>
										<circle fill="#696E72" cx="605.873" cy="92.351" r="2.691"/>
									</g>
									<circle fill="#696E72" cx="612.233" cy="86.07" r="2.69"/>
									<circle fill="#696E72" cx="622.998" cy="86.07" r="2.692"/>
									<circle fill="#696E72" cx="617.615" cy="92.351" r="2.691"/>
								</g>
							</g>
							<g>
								<g>
									<g>
										<circle fill="#696E72" cx="632.883" cy="86.07" r="2.69"/>
										<circle fill="#696E72" cx="643.647" cy="86.07" r="2.692"/>
										<circle fill="#696E72" cx="628.396" cy="92.351" r="2.691"/>
										<circle fill="#696E72" cx="638.264" cy="92.351" r="2.691"/>
										<path fill="#696E72" d="M650.824,92.351c0-1.487-1.206-2.69-2.693-2.69c-1.483,0-2.692,1.203-2.692,2.69
											c0,1.484,1.209,2.689,2.692,2.689C649.618,95.04,650.824,93.835,650.824,92.351z"/>
									</g>
									<circle fill="#696E72" cx="654.492" cy="86.07" r="2.692"/>
									<circle fill="#696E72" cx="665.256" cy="86.07" r="2.691"/>
									<circle fill="#696E72" cx="659.875" cy="92.351" r="2.691"/>
								</g>
								<g>
									<g>
										<path fill="#696E72" d="M677.83,86.07c0-1.486-1.201-2.69-2.691-2.69c-1.484,0-2.689,1.204-2.689,2.69
											c0,1.485,1.205,2.69,2.689,2.69C676.629,88.761,677.83,87.556,677.83,86.07z"/>
										<circle fill="#696E72" cx="685.906" cy="86.07" r="2.691"/>
										<circle fill="#696E72" cx="670.655" cy="92.351" r="2.692"/>
										<circle fill="#696E72" cx="680.522" cy="92.351" r="2.692"/>
										<circle fill="#696E72" cx="690.39" cy="92.351" r="2.691"/>
									</g>
									<circle fill="#696E72" cx="696.751" cy="86.07" r="2.691"/>
									<path fill="#696E72" d="M710.208,86.07c0-1.486-1.208-2.69-2.692-2.69c-1.488,0-2.693,1.204-2.693,2.69
										c0,1.485,1.205,2.69,2.693,2.69C709,88.761,710.208,87.556,710.208,86.07z"/>
									<circle fill="#696E72" cx="702.132" cy="92.351" r="2.69"/>
								</g>
							</g>
						</g>
						<g>
							<g>
								<g>
									<g>
										<path fill="#696E72" d="M551.057,99.518c0-1.488-1.205-2.693-2.692-2.693c-1.485,0-2.69,1.205-2.69,2.693
											c0,1.484,1.205,2.691,2.69,2.691C549.852,102.209,551.057,101.002,551.057,99.518z"/>
										<path fill="#696E72" d="M561.82,99.518c0-1.488-1.205-2.693-2.69-2.693c-1.488,0-2.692,1.205-2.692,2.693
											c0,1.484,1.204,2.691,2.692,2.691C560.615,102.209,561.82,101.002,561.82,99.518z"/>
										<path fill="#696E72" d="M546.571,105.797c0-1.486-1.208-2.693-2.691-2.693c-1.487,0-2.691,1.207-2.691,2.693
											c0,1.485,1.204,2.69,2.691,2.69C545.363,108.487,546.571,107.282,546.571,105.797z"/>
										<circle fill="#696E72" cx="553.747" cy="105.797" r="2.69"/>
										<circle fill="#696E72" cx="563.615" cy="105.797" r="2.691"/>
									</g>
									<path fill="#696E72" d="M572.664,99.518c0-1.488-1.202-2.693-2.688-2.693c-1.488,0-2.693,1.205-2.693,2.693
										c0,1.484,1.205,2.691,2.693,2.691C571.462,102.209,572.664,101.002,572.664,99.518z"/>
									<path fill="#696E72" d="M583.429,99.518c0-1.488-1.204-2.693-2.691-2.693c-1.483,0-2.688,1.205-2.688,2.693
										c0,1.484,1.205,2.691,2.688,2.691C582.225,102.209,583.429,101.002,583.429,99.518z"/>
									<circle fill="#696E72" cx="575.356" cy="105.797" r="2.692"/>
								</g>
								<g>
									<g>
										<path fill="#696E72" d="M593.315,99.518c0-1.488-1.207-2.693-2.691-2.693c-1.487,0-2.692,1.205-2.692,2.693
											c0,1.484,1.205,2.691,2.692,2.691C592.108,102.209,593.315,101.002,593.315,99.518z"/>
										<path fill="#696E72" d="M604.08,99.518c0-1.488-1.205-2.693-2.693-2.693c-1.484,0-2.689,1.205-2.689,2.693
											c0,1.484,1.205,2.691,2.689,2.691C602.875,102.209,604.08,101.002,604.08,99.518z"/>
										<circle fill="#696E72" cx="586.138" cy="105.797" r="2.692"/>
										<circle fill="#696E72" cx="596.006" cy="105.797" r="2.691"/>
										<circle fill="#696E72" cx="605.873" cy="105.797" r="2.691"/>
									</g>
									<path fill="#696E72" d="M614.924,99.518c0-1.488-1.205-2.693-2.691-2.693c-1.484,0-2.689,1.205-2.689,2.693
										c0,1.484,1.205,2.691,2.689,2.691C613.719,102.209,614.924,101.002,614.924,99.518z"/>
									<path fill="#696E72" d="M625.689,99.518c0-1.488-1.205-2.693-2.691-2.693c-1.487,0-2.692,1.205-2.692,2.693
										c0,1.484,1.205,2.691,2.692,2.691C624.484,102.209,625.689,101.002,625.689,99.518z"/>
									<circle fill="#696E72" cx="617.615" cy="105.797" r="2.691"/>
								</g>
							</g>
							<g>
								<g>
									<g>
										<path fill="#696E72" d="M635.573,99.518c0-1.488-1.204-2.693-2.692-2.693c-1.483,0-2.688,1.205-2.688,2.693
											c0,1.484,1.205,2.691,2.688,2.691C634.369,102.209,635.573,101.002,635.573,99.518z"/>
										<path fill="#696E72" d="M646.34,99.518c0-1.488-1.208-2.693-2.693-2.693c-1.486,0-2.691,1.205-2.691,2.693
											c0,1.484,1.205,2.691,2.691,2.691C645.132,102.209,646.34,101.002,646.34,99.518z"/>
										<circle fill="#696E72" cx="628.396" cy="105.797" r="2.691"/>
										<circle fill="#696E72" cx="638.264" cy="105.797" r="2.691"/>
										<path fill="#696E72" d="M650.824,105.797c0-1.486-1.206-2.693-2.693-2.693c-1.483,0-2.692,1.207-2.692,2.693
											c0,1.485,1.209,2.69,2.692,2.69C649.618,108.487,650.824,107.282,650.824,105.797z"/>
									</g>
									<path fill="#696E72" d="M657.184,99.518c0-1.488-1.207-2.693-2.691-2.693c-1.487,0-2.692,1.205-2.692,2.693
										c0,1.484,1.205,2.691,2.692,2.691C655.977,102.209,657.184,101.002,657.184,99.518z"/>
									<path fill="#696E72" d="M667.947,99.518c0-1.488-1.205-2.693-2.692-2.693c-1.484,0-2.689,1.205-2.689,2.693
										c0,1.484,1.205,2.691,2.689,2.691C666.742,102.209,667.947,101.002,667.947,99.518z"/>
									<circle fill="#696E72" cx="659.875" cy="105.797" r="2.691"/>
								</g>
								<g>
									<g>
										<path fill="#696E72" d="M677.83,99.518c0-1.488-1.201-2.693-2.691-2.693c-1.484,0-2.689,1.205-2.689,2.693
											c0,1.484,1.205,2.691,2.689,2.691C676.629,102.209,677.83,101.002,677.83,99.518z"/>
										<path fill="#696E72" d="M688.597,99.518c0-1.488-1.205-2.693-2.692-2.693c-1.484,0-2.689,1.205-2.689,2.693
											c0,1.484,1.205,2.691,2.689,2.691C687.392,102.209,688.597,101.002,688.597,99.518z"/>
										<circle fill="#696E72" cx="670.655" cy="105.797" r="2.692"/>
										<circle fill="#696E72" cx="680.522" cy="105.797" r="2.692"/>
										<circle fill="#696E72" cx="690.39" cy="105.797" r="2.691"/>
									</g>
									<path fill="#696E72" d="M699.442,99.518c0-1.488-1.205-2.693-2.693-2.693c-1.483,0-2.688,1.205-2.688,2.693
										c0,1.484,1.205,2.691,2.688,2.691C698.237,102.209,699.442,101.002,699.442,99.518z"/>
									<path fill="#696E72" d="M710.208,99.518c0-1.488-1.208-2.693-2.692-2.693c-1.488,0-2.693,1.205-2.693,2.693
										c0,1.484,1.205,2.691,2.693,2.691C709,102.209,710.208,101.002,710.208,99.518z"/>
									<circle fill="#696E72" cx="702.132" cy="105.797" r="2.69"/>
								</g>
							</g>
						</g>
					</g>
				</g>
			</g>
		</g>
		<path opacity="0.2" fill="#2D2F30" d="M644.547,6.818c-24.918,0-45.117,20.197-45.117,45.113c0,13.033,5.537,24.771,14.375,33.01
			l52.343-72.621C659.733,8.812,652.371,6.818,644.547,6.818z"/>
	</g>
	<g>
		<path fill="#077DC7" d="M155.774,137.5h-9.107H16.125H5v11.665v188.951V349.5h11.125h130.542h9.107
			c6.261,0,11.226-5.123,11.226-11.384V149.165C167,142.904,162.035,137.5,155.774,137.5z"/>
	</g>
	<g>
		<path fill="#FFFFFF" d="M165.065,137.436l-9.099-0.42l-126.814-5.847l-11.372-0.524l-0.525,11.373L8.553,330.769L8.029,342.14
			l11.372,0.524l126.816,5.846l9.097,0.419c6.255,0.29,11.609-4.593,11.897-10.847l8.701-188.75
			C176.203,143.077,171.32,137.723,165.065,137.436z"/>
	</g>
	<g>
		<path fill="#E0E0E0" d="M155.774,134.5h-9.107H19.716H8v11.075v188.95V345.5h11.716h126.951h9.107
			c6.261,0,11.226-4.714,11.226-10.975v-188.95C167,139.312,162.035,134.5,155.774,134.5z"/>
	</g>
	<g>
		<path fill="#E0E0E0" d="M159.698,119.466l-9.108,0.048l-126.947,0.676l-11.385,0.062l0.061,11.384l1.005,188.95l0.062,11.382
			l11.384-0.061l126.949-0.676l9.107-0.05c6.261-0.03,11.357-5.183,11.324-11.443l-1.007-188.948
			C171.109,124.528,165.959,119.432,159.698,119.466z"/>
	</g>
	<g>
		<path fill="#FFFFFF" d="M154.412,121.816l-9.102,0.344l-126.857,4.804l-11.378,0.432l0.431,11.378l7.15,188.816l0.432,11.373
			l11.376-0.431l126.859-4.804l9.101-0.346c6.258-0.234,11.184-5.549,10.947-11.805l-7.152-188.816
			C165.982,126.504,160.669,121.578,154.412,121.816z"/>
	</g>
	<g>
		<path fill="#FFFFFF" d="M155.774,131.5h-9.107H19.716H8v11.381v188.951V343.5h11.716h126.951h9.107
			c6.261,0,11.226-5.406,11.226-11.668V142.881C167,136.62,162.035,131.5,155.774,131.5z"/>
	</g>
	<g>
		<path fill="#077DC7" d="M155.774,129.5h-9.107H16.125H5v11.586v188.951V341.5h11.125h130.542h9.107
			c6.261,0,11.226-5.202,11.226-11.463V141.086C167,134.824,162.035,129.5,155.774,129.5z"/>
	</g>
	<rect x="15" y="129.5" fill="#2094CE" width="2" height="212"/>
	<g>
		<rect x="12" y="129.5" fill="#12709E" width="3" height="212"/>
		<rect x="5" y="129.5" fill="#12709E" width="2" height="212"/>
	</g>
	<rect x="7" y="129.5" fill="#2094CE" width="5" height="212"/>
	<rect x="137" y="341.5" fill="#0D3954" width="9" height="8"/>
	<g>
		<polygon fill="#1A1A1A" points="48.116,119.635 50.501,138.392 57.875,138.021 59.35,135.061 61.472,137.841 70.106,137.406 
			71.58,134.446 73.704,137.227 81.438,136.838 81.931,117.936 		"/>
		<polygon fill="#353535" points="50.675,134.787 50.855,138.373 57.875,138.021 59.35,135.061 61.472,137.841 70.106,137.406 
			71.58,134.446 73.704,137.227 81.339,136.842 81.159,133.255 		"/>
		<path fill="#D3D3D3" d="M71.317,137.455l-4.541-26.096l0.244-0.262c1.111-1.188,3.795-4.691,2.893-6.637
			c-0.595-1.282-2.812-1.865-6.416-1.684c-3.735,0.188-5.972,1.019-6.465,2.402c-0.694,1.941,1.978,4.928,3.065,5.914l0.242,0.218
			l-0.339,26.669l-1.44-0.018l0.33-26.027c-1.001-0.961-4.239-4.367-3.217-7.239c0.725-2.034,3.262-3.133,7.751-3.357
			c4.36-0.22,6.91,0.604,7.796,2.517c1.32,2.85-1.897,6.82-2.903,7.957l4.419,25.395L71.317,137.455z"/>
	</g>
	<g>
		<polygon fill="#4EB3B5" points="118.113,215.371 162.592,211.823 160.2,178.637 109.386,182.643 111.385,210.356 		"/>
		<polygon fill="#8CDDDD" points="110.512,209.939 118,209.049 118,215.588 		"/>
		
			<rect x="116.358" y="189.705" transform="matrix(0.997 -0.0768 0.0768 0.997 -14.3471 11.0618)" fill="#409696" width="40.398" height="4.489"/>
		
			<rect x="124.197" y="197.784" transform="matrix(0.997 -0.0769 0.0769 0.997 -14.9705 11.2299)" fill="#409696" width="28.31" height="4.49"/>
	</g>
	<rect x="137" y="129.5" fill="#174B72" width="9" height="212"/>
	<path fill="#D8D8D8" d="M162.82,172.721c-2.58,1.535-5.915,0.688-7.452-1.89l-0.867-1.459c-1.537-2.578-0.691-5.915,1.888-7.451
		l12.259-7.3c2.579-1.534,5.914-0.688,7.45,1.89l0.867,1.46c1.537,2.577,0.691,5.914-1.888,7.45L162.82,172.721z M174.431,164.761
		c2.256-1.345,2.996-4.263,1.651-6.519l-0.646-1.085c-1.343-2.257-4.261-2.995-6.519-1.651l-11.882,7.074
		c-2.258,1.345-2.998,4.264-1.653,6.519l0.646,1.086c1.344,2.256,4.262,2.996,6.519,1.651L174.431,164.761z"/>
	<path fill="#D8D8D8" d="M159.012,194.632c-2.996,0.189-5.578-2.085-5.768-5.081l-0.107-1.694c-0.191-2.995,2.084-5.578,5.08-5.769
		l14.238-0.9c2.996-0.189,5.577,2.086,5.768,5.08l0.106,1.694c0.19,2.995-2.085,5.578-5.079,5.769L159.012,194.632z
		 M172.975,192.848c2.622-0.166,4.612-2.426,4.445-5.046l-0.08-1.261c-0.166-2.621-2.425-4.609-5.046-4.443l-13.803,0.873
		c-2.62,0.166-4.612,2.425-4.445,5.046l0.079,1.261c0.167,2.62,2.426,4.61,5.047,4.444L172.975,192.848z"/>
</g>
</svg>
